<?xml version="1.0" encoding="UTF-8"?>
<svg id="uuid-be5fb0f8-7172-4511-b196-1b4901493b10" data-name="Layer 1" xmlns="http://www.w3.org/2000/svg" width="310" height="310" viewBox="0 0 310 310">
  <rect x="0" y="0" width="310" height="310" style="fill: #f7ec13;"/>
  <path d="M100.92,128.46h25.15v21.67h-25.15v-21.67ZM96.25,154.55h34.48v-30.51h-34.48v30.51Z" style="fill: #231f20;"/>
  <path d="M141.87,128.46h25.15v21.67h-25.15v-21.67ZM167.02,113.16v10.88h-29.82v30.51h34.48v-41.39h-4.67Z" style="fill: #231f20;"/>
  <polygon points="207.96 150.13 182.82 150.13 182.82 124.04 178.15 124.04 178.15 154.55 212.63 154.55 212.63 124.04 207.96 124.04 207.96 150.13" style="fill: #231f20;"/>
  <polygon points="219.1 124.04 219.1 141.5 248.91 141.5 248.91 150.13 219.1 150.13 219.1 154.55 253.58 154.55 253.58 137.08 223.76 137.08 223.76 128.46 253.58 128.46 253.58 124.04 219.1 124.04" style="fill: #231f20;"/>
  <path d="M185.08,165.7h23.3v9.33h-23.3v-9.33ZM183.17,164v23.77h27.13v-1.7h-25.21v-9.33h25.21v-12.74h-27.13Z" style="fill: #231f20;"/>
  <polygon points="139.89 164 139.89 187.77 167.01 187.77 167.01 175.03 155.01 175.03 155.01 176.73 165.1 176.73 165.1 186.06 141.8 186.06 141.8 165.7 167.01 165.7 167.01 164 139.89 164" style="fill: #231f20;"/>
  <g>
    <rect x="53.32" y="164" width="1.91" height="23.77" style="fill: #231f20;"/>
    <rect x="65.93" y="173.25" width="1.91" height="27.13" transform="translate(-119.93 253.69) rotate(-90)" style="fill: #231f20;"/>
  </g>
  <g>
    <rect x="96.6" y="175.03" width="1.91" height="12.74" style="fill: #231f20;"/>
    <rect x="109.21" y="151.39" width="1.91" height="27.13" transform="translate(-54.79 275.12) rotate(-90)" style="fill: #231f20;"/>
    <rect x="121.82" y="164" width="1.91" height="23.77" style="fill: #231f20;"/>
    <rect x="109.21" y="173.25" width="1.91" height="27.13" transform="translate(-76.64 296.98) rotate(-90)" style="fill: #231f20;"/>
    <rect x="109.21" y="162.42" width="1.91" height="27.13" transform="translate(-65.82 286.16) rotate(-90)" style="fill: #231f20;"/>
  </g>
  <g>
    <rect x="226.45" y="164" width="1.91" height="23.77" style="fill: #231f20;"/>
    <rect x="239.06" y="151.39" width="1.91" height="27.13" transform="translate(75.06 404.97) rotate(-90)" style="fill: #231f20;"/>
  </g>
  <polygon points="53.32 124.04 53.32 154.55 57.99 154.55 57.99 128.46 69.22 128.46 69.22 154.55 73.89 154.55 73.89 128.46 85.12 128.46 85.12 154.55 89.79 154.55 89.79 124.04 53.32 124.04" style="fill: #231f20;"/>
</svg>